<svg xmlns="http://www.w3.org/2000/svg" width="398.754" height="246.911" viewBox="0 0 398.754 246.911"><defs><style>.a{fill:#e6e6e6;}.b{fill:#f2f2f2;}.c{fill:#004ac2;}.d{fill:#2f2e41;}.e{fill:#f1f1f1;}.f{fill:#fff;}.g{fill:#e5e5e5;}.h{fill:#cbcbcb;}.i{fill:#3f3d56;}</style></defs><g transform="translate(0 -0.004)"><path class="a" d="M251.094,632.846a11.224,11.224,0,0,0,10.838-1.909c3.8-3.186,4.988-8.435,5.955-13.3l2.864-14.377-6,4.13c-4.313,2.969-8.722,6.034-11.709,10.336s-4.289,10.173-1.89,14.827" transform="translate(-223.422 -404.117)"/><path class="b" d="M252.378,668.972c-.607-4.421-1.231-8.9-.805-13.368a21.024,21.024,0,0,1,4.054-11.023,18.337,18.337,0,0,1,4.7-4.263c.471-.3.9.449.435.744a17.433,17.433,0,0,0-6.9,8.32,27.91,27.91,0,0,0-1.482,12.037c.157,2.453.488,4.889.822,7.324a.444.444,0,0,1-.3.53.434.434,0,0,1-.53-.3Z" transform="translate(-224.192 -422.838)"/><path class="c" d="M441.627,491.312a3.428,3.428,0,0,1-1.408.331l-45.239,1.242a7.1,7.1,0,0,1-.309-14.2l45.24-1.241a3.461,3.461,0,0,1,3.531,3.381l.158,7.287A3.465,3.465,0,0,1,441.627,491.312Z" transform="translate(-293.178 -340.432)"/><path class="c" d="M368.318,629.247h-7.289a3.461,3.461,0,0,1-3.457-3.457V565.041a3.461,3.461,0,0,1,3.457-3.457h7.289a3.461,3.461,0,0,1,3.457,3.457V625.79A3.461,3.461,0,0,1,368.318,629.247Z" transform="translate(-277.916 -383.021)"/><path class="c" d="M407.51,629.247h-7.289a3.461,3.461,0,0,1-3.457-3.457V565.041a3.461,3.461,0,0,1,3.457-3.457h7.289a3.461,3.461,0,0,1,3.457,3.457V625.79A3.461,3.461,0,0,1,407.51,629.247Z" transform="translate(-297.754 -383.021)"/><circle class="c" cx="25.186" cy="25.186" r="25.186" transform="translate(71.961 65.039)"/><path class="d" d="M369.742,525.649H351.623a21.372,21.372,0,0,1-18.549-32.128l25.339-43.888a3.21,3.21,0,0,1,5.56,0l24.828,43a22.008,22.008,0,0,1-19.059,33.011Z" transform="translate(-264.047 -325.544)"/><path class="d" d="M405,386.881c1.633-.045,3.664-.1,5.23-1.245a4.016,4.016,0,0,0,1.58-3,2.7,2.7,0,0,0-.919-2.219,3.487,3.487,0,0,0-3.3-.475l1.333-9.741-.979-.134L406.38,381.52l.817-.375a2.99,2.99,0,0,1,3.056.027,1.736,1.736,0,0,1,.569,1.43,3.036,3.036,0,0,1-1.176,2.236c-1.218.89-2.838,1-4.675,1.056Z" transform="translate(-301.908 -286.083)"/><rect class="d" width="5.319" height="0.988" transform="translate(111.857 84.959)"/><rect class="d" width="5.319" height="0.988" transform="translate(95.066 84.959)"/><path class="c" d="M379.38,538.551a3.428,3.428,0,0,1-.331-1.408L377.807,491.9a7.1,7.1,0,1,1,14.2-.309l1.241,45.239a3.461,3.461,0,0,1-3.381,3.531l-7.287.158a3.465,3.465,0,0,1-3.2-1.973Z" transform="translate(-288.157 -344.079)"/><path class="d" d="M356.648,322.132c3.06,4,7.918,6.686,13.052,6.051a11.351,11.351,0,0,0,9.935-8.892,14.652,14.652,0,0,0-3.85-12.934c-3.461-3.64-8.413-5.6-13.316-6.269a33.151,33.151,0,0,0-25.845,8.1,31.661,31.661,0,0,0-8.243,11.05,30.976,30.976,0,0,0-2.556,13.372,33.785,33.785,0,0,0,11.1,24.149,31.3,31.3,0,0,0,2.671,2.092c.782.549,1.523-.735.748-1.279A31.745,31.745,0,0,1,327.612,336.2a29.593,29.593,0,0,1,6.94-23.872,32.489,32.489,0,0,1,22.6-11.016c8.666-.378,19.5,3.491,21.118,13.138.727,4.324-.889,8.869-4.852,11.034-4.242,2.318-9.444,1.364-13.09-1.629a15.038,15.038,0,0,1-2.4-2.475c-.571-.747-1.859-.01-1.279.748Z" transform="translate(-261.838 -250.525)"/><rect class="e" width="215.905" height="102.451" transform="translate(135.98 36.717) rotate(-8.22)"/><rect class="f" width="203.558" height="85.478" transform="translate(143.347 44.53) rotate(-8.22)"/><rect class="g" width="215.905" height="9.172" transform="translate(135.043 30.872) rotate(-8.22)"/><circle class="f" cx="1.7" cy="1.7" r="1.7" transform="translate(140.86 33.534)"/><circle class="f" cx="1.7" cy="1.7" r="1.7" transform="translate(147.246 32.612)"/><circle class="f" cx="1.7" cy="1.7" r="1.7" transform="translate(153.633 31.689)"/><rect class="a" width="215.905" height="102.451" transform="translate(182.849 49.477)"/><rect class="f" width="203.558" height="85.478" transform="translate(189.023 58.262)"/><rect class="h" width="215.905" height="9.172" transform="translate(182.757 43.557)"/><circle class="f" cx="1.7" cy="1.7" r="1.7" transform="translate(187.873 47.251)"/><circle class="f" cx="1.7" cy="1.7" r="1.7" transform="translate(194.326 47.251)"/><circle class="f" cx="1.7" cy="1.7" r="1.7" transform="translate(200.779 47.251)"/><rect class="a" width="28.669" height="2.155" transform="translate(306.319 71.258)"/><rect class="a" width="44.27" height="2.155" transform="translate(306.319 77.583)"/><rect class="a" width="36.079" height="2.155" transform="translate(306.779 83.608)"/><rect class="a" width="21.063" height="2.155" transform="translate(306.319 90.218)"/><rect class="a" width="31.789" height="2.155" transform="translate(306.319 96.675)"/><rect class="a" width="3.51" height="3.51" transform="translate(293.252 70.58)"/><rect class="a" width="3.51" height="3.51" transform="translate(293.252 76.905)"/><rect class="a" width="3.51" height="3.51" transform="translate(293.252 82.93)"/><rect class="a" width="3.51" height="3.51" transform="translate(293.252 89.54)"/><rect class="a" width="3.51" height="3.51" transform="translate(293.252 95.997)"/><rect class="a" width="28.669" height="2.155" transform="translate(306.319 103.172)"/><rect class="a" width="44.27" height="2.155" transform="translate(306.319 109.498)"/><rect class="a" width="36.079" height="2.155" transform="translate(306.779 115.522)"/><rect class="a" width="21.063" height="2.155" transform="translate(306.319 122.132)"/><rect class="a" width="31.789" height="2.155" transform="translate(306.319 128.589)"/><rect class="a" width="3.51" height="3.51" transform="translate(293.252 102.494)"/><rect class="a" width="3.51" height="3.51" transform="translate(293.252 108.82)"/><rect class="a" width="3.51" height="3.51" transform="translate(293.252 114.844)"/><rect class="a" width="3.51" height="3.51" transform="translate(293.252 121.454)"/><rect class="a" width="3.51" height="3.51" transform="translate(293.252 127.911)"/><rect class="a" width="28.669" height="2.155" transform="translate(215.626 120.074)"/><rect class="a" width="36.079" height="2.155" transform="translate(211.791 125.673)"/><path class="a" d="M661.284,368.918A18.726,18.726,0,0,1,633.689,385.4l0,0a18.72,18.72,0,1,1,27.6-16.482Z" transform="translate(-412.691 -276.026)"/><circle class="f" cx="5.089" cy="5.089" r="5.089" transform="translate(224.882 81.806)"/><path class="f" d="M661.537,399.815a26.228,26.228,0,0,1-17.565-.068l0,0,3.791-7.483h10.177Z" transform="translate(-422.878 -297.316)"/><path class="c" d="M531.377,447.166c-8.869,0-16.085-7.665-16.085-17.087s7.216-17.087,16.085-17.087,16.085,7.665,16.085,17.087S540.247,447.166,531.377,447.166Zm0-29.857c-6.489,0-11.768,5.728-11.768,12.769s5.279,12.77,11.768,12.77,11.768-5.729,11.768-12.77-5.279-12.769-11.768-12.769Z" transform="translate(-357.747 -307.81)"/><path class="i" d="M537.1,494.369H506.634A10.144,10.144,0,0,1,496.5,484.236V454.354a6.945,6.945,0,0,1,6.937-6.937h36.856a6.945,6.945,0,0,1,6.937,6.937v29.882A10.144,10.144,0,0,1,537.1,494.369Z" transform="translate(-348.236 -325.234)"/><path class="f" d="M547.715,475.75a5.937,5.937,0,1,0-8.635,5.283v9.288h5.4v-9.288a5.931,5.931,0,0,0,3.238-5.283Z" transform="translate(-368.148 -336.568)"/><path class="i" d="M384.921,698.98H196.768a.494.494,0,1,1,0-.988H384.921a.494.494,0,0,1,0,.988Z" transform="translate(-196.274 -452.065)"/></g></svg>