<svg xmlns="http://www.w3.org/2000/svg" width="176.464" height="111.794" viewBox="0 0 176.464 111.794">
  <g id="any" transform="translate(2.5 2.5)">
    <path id="Path_11868" data-name="Path 11868" d="M46.211,39.273,43.885,45.09a6.917,6.917,0,0,1-3.539,3.719L32.8,52.268A2.416,2.416,0,0,0,33.8,56.88H77.759a2.433,2.433,0,0,0,1.081-4.612l-6.876-3.413a6.917,6.917,0,0,1-3.383-3.719l-2.25-5.864" transform="translate(38.683 49.705)" fill="none" stroke="#13212f" stroke-width="5" fill-rule="evenodd"/>
    <rect id="Rectangle_2318" data-name="Rectangle 2318" width="59.111" height="75.881" rx="4" transform="translate(0 30.914)" fill="none" stroke="#13212f" stroke-width="5"/>
    <rect id="Rectangle_2319" data-name="Rectangle 2319" width="28.926" height="49.051" rx="4" transform="translate(142.538 57.744)" fill="none" stroke="#13212f" stroke-width="5"/>
    <path id="Path_11869" data-name="Path 11869" d="M25.455,30.91h87.2m-87.2,18.446H109.3" transform="translate(30.933 38.784)" fill="none" stroke="#13212f" stroke-width="5" fill-rule="evenodd"/>
    <path id="Path_11870" data-name="Path 11870" d="M77.931,5.09h6.825M15.214,38.547h1.845M12.364,91.453h6.825m120.62,0h6.827" transform="translate(13.839 5.069)" fill="none" stroke="#13212f" stroke-linecap="round" stroke-linejoin="round" stroke-width="5" fill-rule="evenodd"/>
    <path id="Path_11871" data-name="Path 11871" d="M16.8,33.887V5.3A4.612,4.612,0,0,1,21.412.684H130.244A4.612,4.612,0,0,1,134.856,5.3V57.9" transform="translate(19.631 -0.684)" fill="none" stroke="#13212f" stroke-width="5" fill-rule="evenodd"/>
  </g>
</svg>
