<svg xmlns="http://www.w3.org/2000/svg" width="108.612" height="108.612" viewBox="0 0 108.612 108.612"><defs><style>.a{fill:#e6e6e6;}.b{fill:#f4f4f4;}.c{fill:#d2d2d2;}.d{fill:#63b2b9;}.e{fill:#e6646e;}.f{fill:#f68250;}.g{fill:#f9be3c;}.h{fill:#50a3ab;}.i{fill:#8c645a;}</style></defs><g transform="translate(0)"><path class="a" d="M108.3,15.068h-4.827v-3.62H19V3h89.3Z" transform="translate(0.309 -3)"/><path class="b" d="M89,13h4.827V75.754H89Z" transform="translate(14.785 -0.932)"/><path class="c" d="M104.3,22.068H99.476v-3.62H15V10h89.3Z" transform="translate(-0.518 -1.552)"/><path class="a" d="M85,20h4.827V82.754H85Z" transform="translate(13.958 0.516)"/><path class="a" d="M100.3,29.068H95.476v-3.62H11V17h89.3Z" transform="translate(-1.345 -0.105)"/><path class="b" d="M81,27h4.827V89.754H81Z" transform="translate(13.131 1.963)"/><path class="c" d="M96.3,36.068H91.476v-3.62H7V24H96.3Z" transform="translate(-2.173 1.343)"/><path class="a" d="M77,34h4.827V96.754H77Z" transform="translate(12.304 3.411)"/><path class="d" d="M3,31H92.3V43.068H3Z" transform="translate(-3 2.791)"/><path class="b" d="M3,41H92.3v62.754H3Z" transform="translate(-3 4.859)"/><path class="e" d="M8,46H51.445V82.2H8Z" transform="translate(-1.966 5.893)"/><ellipse class="b" cx="12.003" cy="12.003" rx="12.003" ry="12.003" transform="translate(15.746 58.073)"/><path class="e" d="M22,68.068V56l12.068,6.034Z" transform="translate(0.929 7.961)"/><path class="f" d="M49,46H61.068V59.275H49Z" transform="translate(6.513 5.893)"/><path class="g" d="M59,46H74.688V59.275H59Z" transform="translate(8.581 5.893)"/><path class="f" d="M49,61H61.068V74.275H49Z" transform="translate(6.513 8.995)"/><path class="g" d="M59,61H74.688V74.275H59Z" transform="translate(8.581 8.995)"/><path class="f" d="M49,76H61.068V89.275H49Z" transform="translate(6.513 12.097)"/><path class="g" d="M59,76H74.688V89.275H59Z" transform="translate(8.581 12.097)"/><path class="h" d="M80.238,37.414H39.207a1.207,1.207,0,1,1,0-2.414H80.238a1.207,1.207,0,1,1,0,2.414Z" transform="translate(4.238 3.618)"/><ellipse class="a" cx="1.263" cy="1.263" rx="1.263" ry="1.263" transform="translate(14.483 38.489)"/><ellipse class="a" cx="1.263" cy="1.263" rx="1.263" ry="1.263" transform="translate(9.429 38.489)"/><ellipse class="a" cx="1.263" cy="1.263" rx="1.263" ry="1.263" transform="translate(5.007 38.489)"/><g transform="translate(4.827 91.717)"><path class="i" d="M13.034,81.414H8.207a1.207,1.207,0,1,1,0-2.414h4.827a1.207,1.207,0,1,1,0,2.414Z" transform="translate(-7 -79)"/><path class="i" d="M50,81.414H16.207a1.207,1.207,0,1,1,0-2.414H50a1.207,1.207,0,1,1,0,2.414Z" transform="translate(-5.346 -79)"/><path class="i" d="M13.034,85.414H8.207a1.207,1.207,0,0,1,0-2.414h4.827a1.207,1.207,0,0,1,0,2.414Z" transform="translate(-7 -78.173)"/><path class="i" d="M50,85.414H16.207a1.207,1.207,0,0,1,0-2.414H50a1.207,1.207,0,0,1,0,2.414Z" transform="translate(-5.346 -78.173)"/><path class="i" d="M13.034,89.414H8.207a1.207,1.207,0,1,1,0-2.414h4.827a1.207,1.207,0,1,1,0,2.414Z" transform="translate(-7 -77.346)"/><path class="i" d="M50,89.414H16.207a1.207,1.207,0,1,1,0-2.414H50a1.207,1.207,0,0,1,0,2.414Z" transform="translate(-5.346 -77.346)"/></g></g></svg>