<svg xmlns="http://www.w3.org/2000/svg" width="112.491" height="108.612" viewBox="0 0 112.491 108.612"><defs><style>.a{fill:#e7eced;}.b{fill:#ebba16;}.c{fill:#afb6bb;}.d{fill:#fff;}.e{fill:#1f436d;}.f{fill:#15324f;}.g{fill:#366db6;}</style></defs><path class="a" d="M49.032,44.94V43h-19.4V44.94c0,8.577-3.061,15.516-11.637,15.516v3.879H60.669V60.456C52.093,60.456,49.032,53.516,49.032,44.94Z" transform="translate(16.911 40.399)"/><path class="a" d="M96.975,0H5.82A5.821,5.821,0,0,0,0,5.82V71.762H112.491V5.82A5.821,5.821,0,0,0,106.671,0Z" transform="translate(0 0)"/><path class="b" d="M4,4h96.975V66.064H4Z" transform="translate(3.758 3.758)"/><path class="c" d="M106.671,51.516H5.82A5.821,5.821,0,0,1,0,45.7V36H112.491v9.7A5.821,5.821,0,0,1,106.671,51.516Z" transform="translate(0 33.822)"/><path class="d" d="M38.577,42.879H26.94a1.94,1.94,0,1,1,0-3.879H38.577a1.94,1.94,0,1,1,0,3.879Z" transform="translate(23.488 36.641)"/><path class="c" d="M68.306,59.758H17.879a3.879,3.879,0,1,1,0-7.758H68.306a3.879,3.879,0,1,1,0,7.758Z" transform="translate(13.153 48.854)"/><path class="e" d="M40.274,29.305,17,18.353V33.184L40.274,44.821,63.548,33.184V18.353Z" transform="translate(15.972 17.243)"/><g transform="translate(83.398 29.093)"><path class="a" d="M46.94,36.335A1.94,1.94,0,0,1,45,34.4V16.94a1.94,1.94,0,0,1,3.879,0V34.4A1.94,1.94,0,0,1,46.94,36.335Z" transform="translate(-41.12 -15)"/><path class="a" d="M44.938,33.7a1.939,1.939,0,0,1-1.612-3.016l3.879-5.819a1.94,1.94,0,0,1,3.227,2.153l-3.879,5.819A1.938,1.938,0,0,1,44.938,33.7Z" transform="translate(-43 -6.544)"/><path class="a" d="M50.82,33.7a1.938,1.938,0,0,1-1.616-.863l-3.879-5.819a1.94,1.94,0,0,1,3.227-2.153l3.879,5.819A1.939,1.939,0,0,1,50.82,33.7Z" transform="translate(-41.12 -6.545)"/></g><path class="f" d="M29.94,34.577A1.94,1.94,0,0,1,28,32.637v-9.7a1.94,1.94,0,0,1,3.879,0v9.7A1.94,1.94,0,0,1,29.94,34.577Z" transform="translate(26.306 19.73)"/><path class="g" d="M44.972,8,12,23.516,44.972,39.032,77.943,23.516Z" transform="translate(11.274 7.516)"/><path class="a" d="M62.911,18.879H29.94a1.94,1.94,0,1,1,0-3.879H62.911a1.94,1.94,0,0,1,0,3.879Z" transform="translate(26.306 14.093)"/><path class="a" d="M29.94,24.637A1.94,1.94,0,0,1,28,22.7V14.94a1.94,1.94,0,0,1,3.879,0V22.7A1.94,1.94,0,0,1,29.94,24.637Z" transform="translate(26.306 12.214)"/></svg>