<svg xmlns="http://www.w3.org/2000/svg" width="23.642" height="23.642" viewBox="0 0 23.642 23.642"><defs><style>.a{fill:#fff;}</style></defs><path class="a" d="M11.821,0C8.61,0,8.209.015,6.948.071a8.716,8.716,0,0,0-2.87.55A5.789,5.789,0,0,0,1.984,1.984,5.768,5.768,0,0,0,.621,4.078a8.691,8.691,0,0,0-.55,2.87C.012,8.209,0,8.61,0,11.821s.015,3.612.071,4.873a8.722,8.722,0,0,0,.55,2.87,5.8,5.8,0,0,0,1.363,2.094,5.781,5.781,0,0,0,2.094,1.363,8.727,8.727,0,0,0,2.87.55c1.261.059,1.662.071,4.873.071s3.612-.015,4.873-.071a8.747,8.747,0,0,0,2.87-.55,6.041,6.041,0,0,0,3.458-3.458,8.722,8.722,0,0,0,.55-2.87c.059-1.261.071-1.662.071-4.873s-.015-3.612-.071-4.873a8.742,8.742,0,0,0-.55-2.87,5.8,5.8,0,0,0-1.363-2.094A5.76,5.76,0,0,0,19.564.621a8.7,8.7,0,0,0-2.87-.55C15.433.012,15.032,0,11.821,0Zm0,2.128c3.155,0,3.532.016,4.778.07a6.513,6.513,0,0,1,2.194.409A3.89,3.89,0,0,1,21.036,4.85a6.527,6.527,0,0,1,.407,2.194c.056,1.247.069,1.621.069,4.778s-.015,3.532-.073,4.778a6.652,6.652,0,0,1-.415,2.194,3.753,3.753,0,0,1-.886,1.361,3.688,3.688,0,0,1-1.359.883,6.574,6.574,0,0,1-2.2.407c-1.255.056-1.624.069-4.786.069S8.259,21.5,7,21.439a6.7,6.7,0,0,1-2.2-.415,3.661,3.661,0,0,1-1.358-.886,3.589,3.589,0,0,1-.887-1.359,6.709,6.709,0,0,1-.414-2.2c-.044-1.241-.06-1.624-.06-4.772s.016-3.532.06-4.788a6.7,6.7,0,0,1,.414-2.2,3.5,3.5,0,0,1,.887-1.36A3.5,3.5,0,0,1,4.8,2.572,6.543,6.543,0,0,1,6.99,2.157C8.246,2.113,8.615,2.1,11.777,2.1l.044.03Zm0,3.623a6.07,6.07,0,1,0,6.07,6.07A6.07,6.07,0,0,0,11.821,5.751Zm0,10.01a3.94,3.94,0,1,1,3.94-3.94A3.939,3.939,0,0,1,11.821,15.761ZM19.55,5.512a1.419,1.419,0,1,1-1.419-1.418A1.42,1.42,0,0,1,19.55,5.512Z"/></svg>