<svg xmlns="http://www.w3.org/2000/svg" width="28.17" height="22.722" viewBox="0 0 28.17 22.722"><defs><style>.a{fill:#fff;}</style></defs><g transform="translate(-867.455 -9921.309)"><path class="a" d="M27.59,3.556A3.836,3.836,0,0,0,25.107.7C22.9,0,14.085,0,14.085,0S5.267,0,3.063.669A3.92,3.92,0,0,0,.58,3.556,49.22,49.22,0,0,0,0,11.361a49.038,49.038,0,0,0,.58,7.806,3.837,3.837,0,0,0,2.483,2.86c2.227.695,11.022.695,11.022.695s8.818,0,11.022-.669a3.836,3.836,0,0,0,2.483-2.86,49.221,49.221,0,0,0,.58-7.806,46.718,46.718,0,0,0-.58-7.832Zm0,0" transform="translate(867.455 9921.309)"/><path d="M204.969,112.215l8.447-4.865-8.447-4.865Zm0,0" transform="translate(673.16 9825.32)"/></g></svg>