<svg width="24" height="24" viewBox="0 0 24 24" fill="none" xmlns="http://www.w3.org/2000/svg">
<path d="M23.52 12.2668C23.52 11.2801 23.4399 10.5601 23.2666 9.81348H12V14.2667H18.6133C18.48 15.3734 17.76 17.0401 16.16 18.16L16.1375 18.3091L19.6998 21.0688L19.9466 21.0934C22.2133 19.0001 23.52 15.9201 23.52 12.2668Z" fill="#4285F4"/>
<path d="M12 23.9999C15.24 23.9999 17.9599 22.9332 19.9467 21.0933L16.16 18.1599C15.1467 18.8665 13.7866 19.3599 12 19.3599C8.82673 19.3599 6.13342 17.2666 5.17333 14.3733L5.0326 14.3852L1.32847 17.2519L1.28003 17.3866C3.25334 21.3065 7.30667 23.9999 12 23.9999Z" fill="#34A853"/>
<path d="M5.17327 14.3734C4.91994 13.6267 4.77333 12.8267 4.77333 12.0001C4.77333 11.1733 4.91994 10.3734 5.15994 9.62673L5.15323 9.46771L1.40268 6.55499L1.27997 6.61336C0.46667 8.24004 0 10.0667 0 12.0001C0 13.9334 0.46667 15.76 1.27997 17.3867L5.17327 14.3734Z" fill="#FBBC05"/>
<path d="M12 4.63996C14.2533 4.63996 15.7733 5.61328 16.64 6.42667L20.0266 3.11999C17.9467 1.18667 15.24 0 12 0C7.30667 0 3.25334 2.6933 1.28003 6.61326L5.16 9.62663C6.13342 6.73331 8.82673 4.63996 12 4.63996Z" fill="#EB4335"/>
</svg>
