<svg xmlns="http://www.w3.org/2000/svg" width="18.429" height="18.43" viewBox="0 0 18.429 18.43"><defs><style>.a{fill:#fff;}</style></defs><path class="a" d="M12.59,3.375h0A9.211,9.211,0,0,0,3.428,11.62a8.88,8.88,0,0,0,0,1.94A9.211,9.211,0,0,0,12.59,21.8h0a9.215,9.215,0,0,0,0-18.429Zm6.016,14.447c-1.006-.381-2.636-.939-3.65-1.24-.106-.031-.12-.04-.12-.474a2.521,2.521,0,0,1,.292-1.032,5.149,5.149,0,0,0,.408-1.4,3.113,3.113,0,0,0,.6-1.458,1.944,1.944,0,0,0-.018-1.223.784.784,0,0,1-.027-.075A7.966,7.966,0,0,1,16.231,9.2a3.165,3.165,0,0,0-.66-2.273,3.386,3.386,0,0,0-2.592-1.24H12.2a3.382,3.382,0,0,0-2.569,1.24A3.152,3.152,0,0,0,8.97,9.2a7.967,7.967,0,0,1,.137,1.719c-.009.031-.018.053-.027.08a1.911,1.911,0,0,0-.018,1.223,3.161,3.161,0,0,0,.6,1.458,5.362,5.362,0,0,0,.408,1.4,2.475,2.475,0,0,1,.168,1.046c0,.439-.018.443-.115.474-1.05.31-2.609.859-3.544,1.232A7.974,7.974,0,1,1,20.564,12.59,7.9,7.9,0,0,1,18.606,17.822Z" transform="translate(-3.375 -3.375)"/></svg>