<svg id="infinity" xmlns="http://www.w3.org/2000/svg" width="120.438" height="120.489" viewBox="0 0 120.438 120.489">
  <g id="Group_17524" data-name="Group 17524" transform="translate(90.726 100.997)">
    <path id="Path_11863" data-name="Path 11863" d="M387.41,430.518c.108-.081.214-.163.32-.246a3.763,3.763,0,1,1,4.658,5.91C387.712,439.867,383.572,433.415,387.41,430.518Z" transform="translate(-385.899 -429.464)"/>
  </g>
  <g id="Group_17525" data-name="Group 17525" transform="translate(0 0)">
    <path id="Path_11864" data-name="Path 11864" d="M.632,52.494A60.209,60.209,0,1,1,106.707,98.621a3.763,3.763,0,0,1-5.791-4.806A52.681,52.681,0,1,0,8.1,53.459C2.74,94.893,45.279,125.186,82.367,108.071a3.763,3.763,0,1,1,3.153,6.833C42.973,134.539-5.471,99.711.632,52.494Z" transform="translate(-0.109 0)"/>
  </g>
  <g id="Group_17526" data-name="Group 17526" transform="translate(32.088 39.848)">
    <path id="Path_11865" data-name="Path 11865" d="M164.012,197.821l-5.447-13.149a12.448,12.448,0,0,0-16.644-6.58,3.763,3.763,0,0,1-3.2-6.811,19.973,19.973,0,0,1,26.8,10.512l5.447,13.149a12.446,12.446,0,0,0,16.7,6.554,3.763,3.763,0,1,1,3.235,6.794A19.965,19.965,0,0,1,164.012,197.821Z" transform="translate(-136.558 -169.444)"/>
  </g>
  <path id="Path_11866" data-name="Path 11866" d="M100.953,239.182A13.183,13.183,0,0,1,82.39,231.7c1.072,1.1,1.874,2.19,3.717,2.19a3.768,3.768,0,0,0,2.7-6.383l-7.41-7.639a3.765,3.765,0,0,0-5.321-.081l-7.639,7.41a3.763,3.763,0,0,0,5.24,5.4l.935-.907a20.687,20.687,0,0,0,29.825,14.156,3.763,3.763,0,0,0-3.485-6.67Z" transform="translate(-51.495 -167.292)"/>
  <path id="Path_11867" data-name="Path 11867" d="M317.588,183.682a3.763,3.763,0,0,0-5.321-.081l-.935.907a20.682,20.682,0,0,0-29.825-14.156,3.763,3.763,0,1,0,3.484,6.67,13.183,13.183,0,0,1,18.563,7.478l-1.015-1.047a3.763,3.763,0,1,0-5.4,5.24l7.41,7.639a3.765,3.765,0,0,0,5.321.081l7.639-7.41a3.763,3.763,0,0,0,.081-5.32Z" transform="translate(-213.786 -128.49)"/>
</svg>
