<svg xmlns="http://www.w3.org/2000/svg" width="33.982" height="33.982" viewBox="0 0 33.982 33.982">
  <path id="Icon_simple-instagram" data-name="Icon simple-instagram" d="M16.991,0c-4.616,0-5.192.021-7,.1a12.529,12.529,0,0,0-4.125.79,8.321,8.321,0,0,0-3.01,1.96,8.29,8.29,0,0,0-1.96,3.01A12.492,12.492,0,0,0,.1,9.986c-.085,1.812-.1,2.389-.1,7s.021,5.192.1,7a12.536,12.536,0,0,0,.79,4.125,8.332,8.332,0,0,0,1.96,3.01,8.309,8.309,0,0,0,3.01,1.96,12.544,12.544,0,0,0,4.125.79c1.812.085,2.389.1,7,.1s5.192-.021,7-.1a12.573,12.573,0,0,0,4.125-.79,8.683,8.683,0,0,0,4.97-4.97A12.536,12.536,0,0,0,33.88,24c.085-1.812.1-2.389.1-7s-.021-5.192-.1-7a12.565,12.565,0,0,0-.79-4.125,8.339,8.339,0,0,0-1.96-3.01A8.278,8.278,0,0,0,28.12.892,12.5,12.5,0,0,0,24,.1C22.183.017,21.607,0,16.991,0Zm0,3.058c4.535,0,5.076.023,6.867.1a9.361,9.361,0,0,1,3.153.588A5.591,5.591,0,0,1,30.237,6.97a9.381,9.381,0,0,1,.585,3.153c.081,1.793.1,2.331.1,6.867s-.021,5.076-.1,6.867a9.562,9.562,0,0,1-.6,3.153,5.4,5.4,0,0,1-1.273,1.957,5.3,5.3,0,0,1-1.954,1.269,9.45,9.45,0,0,1-3.165.585c-1.8.081-2.335.1-6.88.1s-5.077-.021-6.88-.1a9.634,9.634,0,0,1-3.166-.6A5.262,5.262,0,0,1,4.95,28.947a5.159,5.159,0,0,1-1.274-1.954,9.643,9.643,0,0,1-.595-3.165c-.064-1.784-.086-2.335-.086-6.859s.023-5.077.086-6.883a9.632,9.632,0,0,1,.595-3.163A5.037,5.037,0,0,1,4.95,4.968,5.025,5.025,0,0,1,6.9,3.7a9.4,9.4,0,0,1,3.145-.6c1.805-.064,2.336-.085,6.88-.085l.064.042Zm0,5.208a8.725,8.725,0,1,0,8.725,8.725A8.724,8.724,0,0,0,16.991,8.266Zm0,14.388a5.664,5.664,0,1,1,5.664-5.664A5.662,5.662,0,0,1,16.991,22.654ZM28.1,7.922a2.039,2.039,0,1,1-2.039-2.037A2.04,2.04,0,0,1,28.1,7.922Z" fill="#d92841"/>
</svg>
