<svg xmlns="http://www.w3.org/2000/svg" width="97.787" height="115.501" viewBox="0 0 97.787 115.501"><defs><style>.a{fill:#ffdad6;}.b{fill:#ff9c97;}.c{fill:#ffb5ac;}.d{fill:#ff282f;}.e{fill:#003554;}</style></defs><g transform="translate(0.001)"><path class="a" d="M76.494,288.413H34.817a3.39,3.39,0,0,1-3.384-3.381l-.056-11.741-7.287.942a8.535,8.535,0,0,1-9.9-8.527l-.716-16.854H6.418A6.434,6.434,0,0,1,.868,239.2c.038-.064.078-.129.118-.19l9.484-14.222a3.381,3.381,0,0,1,2.812-1.508H90.666a3.392,3.392,0,0,1,3.38,3.561c-.79,16.457-4.349,22-14.169,32.341v25.833a3.39,3.39,0,0,1-3.384,3.4Zm0,0" transform="translate(0 -172.912)"/><path class="b" d="M155.392,359.593a3.4,3.4,0,0,1-.778-6.7l9.007-2.146a7.888,7.888,0,0,0,5.209-4.1c2.066-4.057,4.7-9.378,4.723-9.432a3.386,3.386,0,1,1,6.062,3.021c-.026.054-2.674,5.411-4.759,9.5a14.651,14.651,0,0,1-9.673,7.622s-9.531,2.238-9.79,2.238Zm0,0" transform="translate(-117.719 -259.676)"/><path class="a" d="M274.84,224.335a3.374,3.374,0,0,0-2.449-1.054H234.66v65.132h23.558a3.39,3.39,0,0,0,3.384-3.4V259.183c9.82-10.342,13.379-15.885,14.169-32.341a3.4,3.4,0,0,0-.931-2.507Zm0,0" transform="translate(-181.724 -172.911)"/><path class="c" d="M155.392,359.593a3.4,3.4,0,0,1-.778-6.7l9.007-2.146a7.888,7.888,0,0,0,5.209-4.1c2.066-4.057,4.7-9.378,4.723-9.432a3.386,3.386,0,1,1,6.062,3.021c-.026.054-2.674,5.411-4.759,9.5a14.651,14.651,0,0,1-9.673,7.622s-9.531,2.238-9.79,2.238Zm0,0" transform="translate(-117.719 -259.676)"/><path class="c" d="M242.092,335.676a3.376,3.376,0,0,0-4.535,1.533c-.019.038-1.372,2.774-2.9,5.815v11.737a14.68,14.68,0,0,0,4.2-5.028c2.085-4.093,4.733-9.45,4.759-9.5a3.4,3.4,0,0,0-1.527-4.553Zm0,0" transform="translate(-181.724 -259.676)"/><path class="d" d="M143.131,122.711a2.491,2.491,0,0,1-1.316-.375c-.741-.459-18.2-11.391-23.7-24.283a19.374,19.374,0,0,1-1.678-7.7A18.654,18.654,0,0,1,120.7,78.376,13.945,13.945,0,0,1,131.4,73.2a14.351,14.351,0,0,1,11.733,6.525A14.351,14.351,0,0,1,154.864,73.2a13.944,13.944,0,0,1,9.916,4.287,18.215,18.215,0,0,1,5.045,12.9,19.709,19.709,0,0,1-1.74,7.681c-5.565,12.88-22.9,23.809-23.632,24.268a2.5,2.5,0,0,1-1.323.379Zm0,0" transform="translate(-90.17 -56.686)"/><path class="d" d="M256.334,77.486a13.944,13.944,0,0,0-9.916-4.287,14.351,14.351,0,0,0-11.733,6.525l-.025-.034V122.71l.025,0a2.5,2.5,0,0,0,1.323-.379c.735-.459,18.068-11.389,23.632-24.268a19.726,19.726,0,0,0,1.74-7.681,18.22,18.22,0,0,0-5.046-12.9Zm0,0" transform="translate(-181.724 -56.686)"/><path class="e" d="M88.249,54.679a3.363,3.363,0,0,1-2.392-.995L83.7,51.521a3.391,3.391,0,1,1,4.784-4.806l2.155,2.163a3.408,3.408,0,0,1,0,4.805,3.368,3.368,0,0,1-2.393,1Zm0,0" transform="translate(-64.051 -35.406)"/><path class="e" d="M352.091,54.678a3.368,3.368,0,0,1-2.393-1,3.407,3.407,0,0,1,0-4.805l2.156-2.163a3.373,3.373,0,0,1,4.785,0,3.408,3.408,0,0,1,0,4.805l-2.156,2.163a3.366,3.366,0,0,1-2.392.995Zm0,0" transform="translate(-270.043 -35.405)"/><path class="e" d="M42.027,159.154H39.45a3.4,3.4,0,0,1,0-6.794h2.577a3.4,3.4,0,0,1,0,6.794Zm0,0" transform="translate(-27.931 -117.989)"/><path class="e" d="M397.845,159.154H395.22a3.4,3.4,0,0,1,0-6.794h2.625a3.4,3.4,0,0,1,0,6.794Zm0,0" transform="translate(-303.443 -117.989)"/><path class="e" d="M223.044,9.229a3.39,3.39,0,0,1-3.384-3.4V3.4a3.384,3.384,0,1,1,6.768,0V5.832A3.39,3.39,0,0,1,223.044,9.229Zm0,0" transform="translate(-170.108)"/></g></svg>