<svg xmlns="http://www.w3.org/2000/svg" width="71.058" height="90.054" viewBox="0 0 71.058 90.054">
  <g id="XMLID_1017_" transform="translate(-54)">
    <path id="XMLID_854_" d="M312.968,309.4h-8.039v-8.039a17.126,17.126,0,0,1,17.126-17.126h8.039v8.039A17.126,17.126,0,0,1,312.968,309.4Z" transform="translate(-206.794 -234.238)" fill="#d8ec84"/>
    <path id="XMLID_853_" d="M81.126,223.167h8.039v-8.039A17.126,17.126,0,0,0,72.039,198H64v8.039A17.126,17.126,0,0,0,81.126,223.167Z" transform="translate(-8.241 -163.177)" fill="#d8ec84"/>
    <circle id="XMLID_1541_" cx="17.063" cy="17.063" r="17.063" transform="translate(72.011 1.896)" fill="#ff9100"/>
    <g id="XMLID_1278_" transform="translate(54 0)">
      <path id="XMLID_1279_" d="M228.665,50.267a2.156,2.156,0,0,1,2.316,1.94,1.759,1.759,0,0,0,3.518,0,5.521,5.521,0,0,0-4.075-5.2v-.244a1.759,1.759,0,1,0-3.518,0V47a5.521,5.521,0,0,0-4.075,5.2,5.661,5.661,0,0,0,5.834,5.457,1.97,1.97,0,1,1-2.316,1.939,1.759,1.759,0,1,0-3.518,0,5.521,5.521,0,0,0,4.075,5.2v.245a1.759,1.759,0,1,0,3.518,0v-.244a5.521,5.521,0,0,0,4.075-5.2,5.661,5.661,0,0,0-5.834-5.457,1.97,1.97,0,1,1,0-3.879Z" transform="translate(-193.136 -37.085)" fill="#fff"/>
      <path id="XMLID_1303_" d="M123.3,48.234h-8.039A18.906,18.906,0,0,0,96.376,67.118v7.31l-5.088,5.088V37.557A18.833,18.833,0,0,0,107.4,12.893,1.759,1.759,0,0,0,104.057,14,15.284,15.284,0,1,1,94.08,4.205,1.759,1.759,0,0,0,95.125.846,18.822,18.822,0,1,0,87.77,37.557V64.35l-5.088-5.088v-7.31A18.906,18.906,0,0,0,63.8,33.067H55.759A1.759,1.759,0,0,0,54,34.826v8.039A18.906,18.906,0,0,0,72.885,61.75h7.31l7.576,7.575V86.536H70.153a1.759,1.759,0,0,0,0,3.518h38.752a1.759,1.759,0,0,0,0-3.518H91.288V84.491l7.576-7.576h7.31a18.906,18.906,0,0,0,18.885-18.885V49.992A1.759,1.759,0,0,0,123.3,48.234Zm-50.415,10A15.384,15.384,0,0,1,57.518,42.865v-6.28H63.8A15.384,15.384,0,0,1,79.164,51.952v3.792L71.4,47.977a1.759,1.759,0,1,0-2.488,2.488l7.768,7.767Zm48.656-.2A15.384,15.384,0,0,1,106.174,73.4h-3.792l7.767-7.767a1.759,1.759,0,0,0-2.488-2.488l-7.767,7.767V67.118a15.384,15.384,0,0,1,15.367-15.367h6.28Z" transform="translate(-54 0)" fill="#004ac2"/>
      <path id="XMLID_1306_" d="M316.139,31.718A1.76,1.76,0,1,0,314.9,31.2,1.772,1.772,0,0,0,316.139,31.718Z" transform="translate(-268.582 -23.24)" fill="#004ac2"/>
    </g>
  </g>
</svg>
