<svg xmlns="http://www.w3.org/2000/svg" width="29.734" height="29.733" viewBox="0 0 29.734 29.733">
  <path id="Icon_awesome-linkedin-in" data-name="Icon awesome-linkedin-in" d="M6.656,29.734H.491V9.883H6.656ZM3.57,7.175a3.587,3.587,0,1,1,3.57-3.6A3.6,3.6,0,0,1,3.57,7.175ZM29.727,29.734H23.576V20.07c0-2.3-.046-5.257-3.205-5.257-3.205,0-3.7,2.5-3.7,5.091v9.829H10.517V9.883h5.912v2.708h.086a6.477,6.477,0,0,1,5.833-3.206c6.239,0,7.386,4.108,7.386,9.445v10.9Z" transform="translate(0 -0.001)" fill="#2361c5"/>
</svg>
