<svg xmlns="http://www.w3.org/2000/svg" width="64.054" height="72" viewBox="0 0 64.054 72"><defs><style>.a{fill:#6c7d87;}.b{fill:#566a75;}.c{fill:#dd9a5e;}.d{fill:#d18c54;}.e{fill:#c6c6c6;}.f{fill:#b7b7b7;}.g{fill:#ededed;}.h{fill:#dadada;}.i{fill:#4c4846;}.j{fill:#3d3938;}.k{fill:#edae6b;}</style></defs><g transform="translate(-30.266 0)"><path class="a" d="M81.97,306.666c-.051-.257-3.171-15.932-3.206-16.093a6.075,6.075,0,0,0-2.88-4.1,6.916,6.916,0,0,0-1.98-.8l-10.64-3.719a1.554,1.554,0,0,1-1.05-1.47v-3.258a13.367,13.367,0,0,1-12.142.058v3.2a1.554,1.554,0,0,1-1.05,1.47l-4.374,1.5h0l-6.257,2.217-.823.243a6.3,6.3,0,0,0-3.5,3.084c-.5,1.016-.352.659-2.782,12.856-.9,4.659-1.1,5-.986,6.039.313,2.909,3.306,2.606,3.387,2.641H78.61A3.081,3.081,0,0,0,81.97,306.666Z" transform="translate(0 -238.534)"/><path class="b" d="M33.978,354.66l3.205-17.555a6.119,6.119,0,0,1,2.648-3.951c-2.691.954-1.857.572-2.684.927a6.134,6.134,0,0,0-3.37,3.592c-.239.678-.084.082-2.5,12.174-.9,4.659-1.1,5-.986,6.039.313,2.909,3.306,2.606,3.387,2.641h3.655C34.758,358.527,33.644,357.019,33.978,354.66Z" transform="translate(-0.001 -286.528)"/><path class="c" d="M40.315,457.918H33.7c-.085-.037-3.5.306-3.41-3.25.019-.758.114-.79,1.009-5.43l.052-.26h8.963Z" transform="translate(-0.02 -385.919)"/><path class="d" d="M34.924,448.979H31.353l-.052.26c-.9,4.656-.991,4.671-1.009,5.43-.085,3.544,3.343,3.221,3.41,3.25h3.655c-2.375,0-3.458-1.249-3.41-3.25C33.952,454.437,34.038,453.951,34.924,448.979Z" transform="translate(-0.021 -385.92)"/><path class="c" d="M169.87,273.671c0,9.088,0-1.035,0,6.123h0v.219a3.383,3.383,0,0,0,2.308,3.208,12.318,12.318,0,0,0,7.519,0,3.383,3.383,0,0,0,2.308-3.208v-.219h0c0-1.424,0-5.361,0-6.123A12.729,12.729,0,0,1,169.87,273.671Z" transform="translate(-119.797 -235.241)"/><path class="d" d="M173.529,283.583h0c0-7.609,0-5.074,0-5.6a13.32,13.32,0,0,1-3.655-1.307c0,9.088,0-1.461,0,5.7h0v.219a3.383,3.383,0,0,0,2.308,3.208,11.26,11.26,0,0,0,2.149.489A4.328,4.328,0,0,1,173.529,283.583Z" transform="translate(-119.796 -237.817)"/><path class="b" d="M94.323,423.7a1.1,1.1,0,0,0-1.1,1.1v11.43H95.42V424.8A1.1,1.1,0,0,0,94.323,423.7Z" transform="translate(-54.028 -364.229)"/><path class="e" d="M231.934,486.477H196.44a2.682,2.682,0,0,1-2.682-2.682h0a1.537,1.537,0,0,1,1.537-1.537h37.784a1.537,1.537,0,0,1,1.537,1.537h0A2.682,2.682,0,0,1,231.934,486.477Z" transform="translate(-140.296 -414.478)"/><path class="f" d="M200.665,483.8h0a1.537,1.537,0,0,1,1.537-1.537h-6.907a1.537,1.537,0,0,0-1.537,1.537h0a2.682,2.682,0,0,0,2.682,2.682h6.907A2.682,2.682,0,0,1,200.665,483.8Z" transform="translate(-140.296 -414.478)"/><path class="g" d="M249.28,316.826H218.435a1.759,1.759,0,0,0-1.754,1.754v19.963a1.759,1.759,0,0,0,1.754,1.754H249.28a1.759,1.759,0,0,0,1.754-1.754V318.58A1.759,1.759,0,0,0,249.28,316.826Z" transform="translate(-159.967 -272.517)"/><g transform="translate(56.715 44.309)"><path class="h" d="M220.337,338.543V318.58a1.759,1.759,0,0,1,1.754-1.754h-3.655a1.759,1.759,0,0,0-1.754,1.754v19.963a1.759,1.759,0,0,0,1.754,1.754h3.655A1.759,1.759,0,0,1,220.337,338.543Z" transform="translate(-216.682 -316.826)"/><circle class="h" cx="2.534" cy="2.534" r="2.534" transform="translate(14.643 9.202)"/></g><path class="e" d="M322.4,381.7a2.533,2.533,0,1,0,2.192,3.8A2.531,2.531,0,0,1,322.4,381.7Z" transform="translate(-248.508 -328.057)"/><path class="i" d="M104.993.059A17.545,17.545,0,0,0,87.577,17.6v6.647h35.084V14.3c0-6.792-4.179-8.357-4.179-8.357C113.285-.463,105,.059,105,.059" transform="translate(-49.18 -0.041)"/><path class="j" d="M107.358.122A17.6,17.6,0,0,0,87.587,16.866c-.028.711-.009.445-.015,7.338h4.179V17.557A17.543,17.543,0,0,1,107.358.122Z" transform="translate(-49.175 0)"/><g transform="translate(38.129 21.691)"><path class="c" d="M90.276,154.582c-2.2-.784-4.589.674-4.589,2.8s2.388,3.586,4.589,2.8Z" transform="translate(-85.687 -154.367)"/><path class="c" d="M304.4,154.582c2.2-.784,4.589.674,4.589,2.8s-2.388,3.586-4.589,2.8Z" transform="translate(-273.372 -154.367)"/></g><g transform="translate(38.122 23.408)"><path class="d" d="M85.964,166.548c-1.285,2.44,1.421,5.1,4.267,4.09v-2.576A3.51,3.51,0,0,1,85.964,166.548Z" transform="translate(-85.635 -166.548)"/><path class="d" d="M304.4,168.061v2.576c2.847,1.014,5.553-1.65,4.267-4.09A3.94,3.94,0,0,1,304.4,168.061Z" transform="translate(-273.364 -166.548)"/></g><path class="k" d="M143.143,95.678a.663.663,0,0,1,.6.658c0,11.251.007,10.4-.019,10.925a13.362,13.362,0,0,1-26.7-.156c-.02-.5-.011-6.33-.011-6.314a4.3,4.3,0,0,1,4.919-4.245,18.8,18.8,0,0,0,15.248-4.086,1.1,1.1,0,0,1,1.687.305A5.4,5.4,0,0,0,143.143,95.678Z" transform="translate(-74.444 -79.299)"/><path class="c" d="M120.688,133.453c-.017-.431-.013-8.325-.012-10.555a4.291,4.291,0,0,0-3.656,4.241c0-.016-.008,5.811.011,6.314a13.424,13.424,0,0,0,15.3,12.723A13.335,13.335,0,0,1,120.688,133.453Z" transform="translate(-74.444 -105.688)"/></g></svg>