<svg xmlns="http://www.w3.org/2000/svg" width="78.607" height="74.337" viewBox="0 0 78.607 74.337"><defs><style>.a{fill:#c4a2fc;}.b{fill:#151a6a;}</style></defs><g transform="translate(15.218 28.695)"><path class="a" d="M39.607,36.91c0-4.277.887-8.72,2.589-11.41H35.8c-1.552,0-3.8,4.445-3.8,11.41s2.252,11.41,3.8,11.41H42.2C40.494,45.632,39.607,41.19,39.607,36.91Z" transform="translate(-7.912 -25.5)"/><path class="a" d="M56.481,36.91c0-4.277.887-8.72,2.589-11.41H43.8c-1.552,0-3.8,4.445-3.8,11.41s2.252,11.41,3.8,11.41H59.07C57.368,45.632,56.481,41.19,56.481,36.91Z" transform="translate(-5.77 -25.5)"/><path class="a" d="M34.552,36.91c0-4.277.887-8.72,2.589-11.41h-17.8C15.724,25.5,13,30.406,13,36.91s2.724,11.41,6.339,11.41h17.8C35.44,45.632,34.552,41.19,34.552,36.91Z" transform="translate(-13 -25.5)"/><path class="a" d="M58.8,25.5c-1.552,0-3.8,4.445-3.8,11.41s2.252,11.41,3.8,11.41c3.614,0,6.339-4.9,6.339-11.41S62.418,25.5,58.8,25.5Z" transform="translate(-1.754 -25.5)"/><path class="a" d="M52.558,45.5H38.836L46.913,65a1.268,1.268,0,0,0,2.343,0l2.259-5.451,5.451,2.259a1.268,1.268,0,0,0,1.656-1.657Z" transform="translate(-6.082 -20.145)"/><path class="a" d="M27.641,45.5H41.364L33.287,65a1.268,1.268,0,0,1-2.343,0l-2.259-5.451-5.451,2.259a1.268,1.268,0,0,1-1.656-1.657Z" transform="translate(-10.729 -20.145)"/></g><path class="b" d="M63.522,12.707,33.1,2.565a1.268,1.268,0,0,0-.8,0L1.868,12.707a1.268,1.268,0,0,0,0,2.409l1.668.554V40.011L1.372,42.172a1.268,1.268,0,1,0,1.793,1.793L4.8,42.326l1.639,1.639a1.268,1.268,0,1,0,1.793-1.793L6.072,40.008V16.514l9.456,3.152L13.688,35.314a1.268,1.268,0,0,0,.761,1.315l17.84,7.607a1.268,1.268,0,0,0,1,0l17.659-7.607a1.268,1.268,0,0,0,.761-1.312L49.862,19.666l13.66-4.553a1.268,1.268,0,0,0,0-2.406ZM32.783,41.689,16.317,34.668l1.672-14.184L32.3,25.255a1.268,1.268,0,0,0,.8,0l14.3-4.771L49.07,34.671ZM32.7,22.716,6.277,13.91,32.7,5.1,59.113,13.91Z" transform="translate(-0.996 -2.5)"/></svg>