<svg id="mortarboard" xmlns="http://www.w3.org/2000/svg" width="171.528" height="120.256" viewBox="0 0 171.528 120.256">
  <path id="Path_11872" data-name="Path 11872" d="M168.218,103.517,132.009,91.28a2.513,2.513,0,1,0-1.609,4.761l35.863,12.121-16.881,8.23a7.628,7.628,0,0,0-2.341-1.058L96.406,102.1a10.834,10.834,0,0,0-21.477,2.029v.055a6.44,6.44,0,0,0,6.465,6.354h8.742a6.4,6.4,0,0,0,5.686-3.4l47.221,12.341L90.358,145.169a10.431,10.431,0,0,1-9.187,0L5.265,108.162,82.408,82.09a10.537,10.537,0,0,1,6.712,0l30.119,10.179a2.513,2.513,0,1,0,1.609-4.761L90.729,77.329a15.6,15.6,0,0,0-9.931,0L3.31,103.517a4.879,4.879,0,0,0-.576,9L42.5,131.907a237.7,237.7,0,0,1-9.159,31.538A9.935,9.935,0,0,0,36.529,174.7a126.288,126.288,0,0,0,38.935,20.467,33.771,33.771,0,0,0,20.6,0A126.312,126.312,0,0,0,135,174.7a9.934,9.934,0,0,0,3.186-11.252,237.813,237.813,0,0,1-9.158-31.537l18.706-9.12v37.819a6.206,6.206,0,0,0-5.725,6.178v7.323a3.706,3.706,0,0,0,1.22,2.746l-.933,14.112a4.788,4.788,0,0,0,4.774,5.1h6.357a4.788,4.788,0,0,0,4.774-5.1l-.933-14.112a3.706,3.706,0,0,0,1.22-2.746v-7.323a6.206,6.206,0,0,0-5.726-6.178V122.734a7.619,7.619,0,0,0-.339-2.231l16.376-7.984a4.879,4.879,0,0,0-.576-9Zm-78.083,1.994H81.393a1.42,1.42,0,0,1-1.439-1.341v-.042A5.756,5.756,0,0,1,81.783,99.9a5.818,5.818,0,0,1,9.784,3.944A1.428,1.428,0,0,1,90.136,105.512Zm40.5,51.475c-13.576,10.625-32.843,18.226-39.479,19.491a2.513,2.513,0,0,0,.941,4.936c6.942-1.324,25.961-8.715,40.238-19.4.351,1,.758,2.142,1.129,3.156a4.922,4.922,0,0,1-1.571,5.575A121.674,121.674,0,0,1,94.521,190.38a28.752,28.752,0,0,1-17.515,0,121.681,121.681,0,0,1-37.371-19.634,4.921,4.921,0,0,1-1.571-5.576l.044-.121c.365-1,.77-2.136,1.085-3.035,13.94,10.429,32.907,18,40.236,19.4a2.513,2.513,0,1,0,.942-4.936c-6.265-1.194-25.6-8.635-39.478-19.493a236.141,236.141,0,0,0,6.264-22.809l31.811,15.509a15.413,15.413,0,0,0,13.592,0l31.809-15.508a236.053,236.053,0,0,0,6.265,22.809Zm16.689,34.054.874-13.213h4.093l.874,13.213Zm6.134-24.256V172.8h-6.426v-6.017a1.192,1.192,0,0,1,1.176-1.176h4.073A1.193,1.193,0,0,1,153.457,166.784Z" transform="translate(0 -76.517)"/>
</svg>
