<svg xmlns="http://www.w3.org/2000/svg" width="22.842" height="13.909" viewBox="0 0 22.842 13.909"><defs><style>.a{fill:#fff;}</style></defs><path class="a" d="M23.581,14.38a3.659,3.659,0,0,1-.857-.1l-2.6,2.652a.106.106,0,0,0,0,.154l4.135,4.4a.713.713,0,0,1,0,1.01.716.716,0,0,1-1.01,0l-4.118-4.387a.113.113,0,0,0-.159,0l-1,1.021a4.421,4.421,0,0,1-3.152,1.329,4.51,4.51,0,0,1-3.218-1.367l-.966-.983a.113.113,0,0,0-.159,0L6.351,22.5a.716.716,0,0,1-1.01,0,.713.713,0,0,1,0-1.01l4.135-4.4a.117.117,0,0,0,0-.154L3.562,10.91a.108.108,0,0,0-.187.077V23.028a1.762,1.762,0,0,0,1.757,1.757H24.46a1.762,1.762,0,0,0,1.757-1.757V13.255A3.643,3.643,0,0,1,23.581,14.38Z" transform="translate(-3.375 -10.876)"/></svg>