<svg xmlns="http://www.w3.org/2000/svg" width="88.883" height="75.558" viewBox="0 0 88.883 75.558"><defs><style>.a{fill:#4380a0;}.b{fill:#3b7191;}.c{fill:#bbf7ff;}.d{fill:#8bf0ff;}.e{fill:#a9dbf5;}.f{fill:#88c3e0;}.g{fill:#f75632;}.h{fill:#e33629;}.i{fill:#f3f3f3;}.j{fill:#e4e4e4;}</style></defs><path class="a" d="M107.816,167.431l-69.71,0a3.6,3.6,0,0,1-3.595-3.595v-47a3.6,3.6,0,0,1,3.594-3.595l69.71,0a3.6,3.6,0,0,1,3.595,3.595v47A3.594,3.594,0,0,1,107.816,167.431Z" transform="translate(-28.519 -100.312)"/><path class="b" d="M434.922,163.82a3.6,3.6,0,0,1-3.577,3.613H425.98a3.6,3.6,0,0,0,3.577-3.613l0-46.963a3.594,3.594,0,0,0-3.568-3.613h5.356a3.594,3.594,0,0,1,3.577,3.613Z" transform="translate(-352.03 -100.313)"/><path class="c" d="M131.587,186.414a.7.7,0,0,1-.694.695h-4.671l-60.109,0a.7.7,0,0,1-.694-.695l0-41.553a.7.7,0,0,1,.694-.695l60.109,0h4.671a.7.7,0,0,1,.694.695Z" transform="translate(-54.061 -125.809)"/><path class="d" d="M420.34,187.108H415.67l0-42.943h4.671a.7.7,0,0,1,.694.695l0,41.553A.7.7,0,0,1,420.34,187.108Z" transform="translate(-343.508 -125.809)"/><path class="e" d="M86.379,431.411H2.5a2.5,2.5,0,0,1-2.5-2.5v-3.938a2.5,2.5,0,0,1,2.5-2.5H86.379a2.5,2.5,0,0,1,2.5,2.5v3.938A2.5,2.5,0,0,1,86.379,431.411Z" transform="translate(0 -355.852)"/><path class="f" d="M472.037,422.463h-5.365a2.5,2.5,0,0,1,2.5,2.505V428.9a2.5,2.5,0,0,1-2.5,2.505h5.365a2.5,2.5,0,0,0,2.5-2.505v-3.937A2.5,2.5,0,0,0,472.037,422.463Z" transform="translate(-385.658 -355.852)"/><path class="g" d="M130.852,123.446H105.565a1,1,0,0,1-1-1V91.3a1,1,0,0,1,1-1h25.287Z" transform="translate(-86.411 -81.217)"/><path class="h" d="M281.287,123.446H256V90.3h25.287a1,1,0,0,1,1,1v31.146A1,1,0,0,1,281.287,123.446Z" transform="translate(-211.558 -81.217)"/><path class="i" d="M152.573,80.228l-21.052-7.284a1,1,0,0,1-.674-.947V39a1,1,0,0,1,1.33-.947l20.4,7.058Z" transform="translate(-108.132 -37.999)"/><path class="j" d="M256,80.228l21.052-7.284a1,1,0,0,0,.674-.947V39a1,1,0,0,0-1.33-.947L256,45.113Z" transform="translate(-211.558 -37.999)"/><path class="f" d="M225.073,426.757H213.711a2.009,2.009,0,0,1-2.009-2.009v-2.285h15.38v2.285A2.009,2.009,0,0,1,225.073,426.757Z" transform="translate(-174.951 -355.852)"/><g transform="translate(25.522 47.345)"><path class="a" d="M183.553,311.257H148.318a1.3,1.3,0,0,0,0,2.605h35.235a1.3,1.3,0,0,0,0-2.605Z" transform="translate(-147.016 -311.257)"/><path class="a" d="M171.169,344.049H148.318a1.3,1.3,0,0,0,0,2.605h22.851a1.3,1.3,0,0,0,0-2.605Z" transform="translate(-147.016 -338.356)"/></g></svg>