<svg width="27" height="22" viewBox="0 0 27 22" fill="none" xmlns="http://www.w3.org/2000/svg">
<path d="M8.5249 21.9092C18.6463 21.9092 24.1813 13.5154 24.1813 6.2365C24.1813 5.99809 24.1764 5.76075 24.1658 5.52449C25.2402 4.74696 26.174 3.77667 26.9106 2.67212C25.9246 3.11083 24.8636 3.40615 23.7506 3.53932C24.8867 2.85737 25.7588 1.77862 26.1703 0.492616C25.1072 1.12355 23.9298 1.58212 22.6762 1.8297C21.672 0.759024 20.2425 0.0893555 18.6596 0.0893555C15.6208 0.0893555 13.1566 2.55622 13.1566 5.59697C13.1566 6.02922 13.2049 6.44967 13.2993 6.85297C8.72594 6.62261 4.67063 4.4307 1.95659 1.09777C1.48402 1.91181 1.21152 2.8574 1.21152 3.86636C1.21152 5.77743 2.18298 7.46453 3.66024 8.4515C2.75745 8.42358 1.90938 8.1755 1.16814 7.76257C1.16733 7.78568 1.16733 7.80822 1.16733 7.83292C1.16733 10.5006 3.06408 12.7279 5.58192 13.2326C5.11954 13.3588 4.63305 13.4264 4.13094 13.4264C3.77692 13.4264 3.432 13.3916 3.09675 13.3271C3.79729 15.5158 5.8287 17.1084 8.2371 17.1529C6.35376 18.6307 3.98127 19.5108 1.40277 19.5108C0.959164 19.5108 0.520923 19.4855 0.09021 19.4345C2.52552 20.9971 5.41722 21.9089 8.52519 21.9089" fill="#1DA1F2"/>
</svg>
