<svg xmlns="http://www.w3.org/2000/svg" width="108.612" height="108.612" viewBox="0 0 108.612 108.612"><defs><style>.a{fill:#804537;}.b{fill:#cbb292;}.c{fill:#7f6e5d;}.d{fill:#e64c3c;}.e{fill:#fdd7ad;}.f{fill:#ecf0f1;}.g{fill:#bdc3c7;}.h{fill:#95a5a5;}</style></defs><g transform="translate(0 0)"><path class="a" d="M89.886,26.483h3.745a3.745,3.745,0,0,1,3.745,3.745V99.515a3.745,3.745,0,0,1-3.745,3.745H3.745A3.745,3.745,0,0,1,0,99.515V30.228a3.745,3.745,0,0,1,3.745-3.745Z" transform="translate(0 -20.865)"/><path class="b" d="M76.508,5.618V73.5A5.959,5.959,0,0,0,70.7,67.414H35.31V3.745A3.756,3.756,0,0,1,39.055,0H70.89a5.61,5.61,0,0,1,5.618,5.618Z" transform="translate(-27.82 0)"/><path class="c" d="M76.508,323.88v1.4H35.31v-7.49H70.7A5.959,5.959,0,0,1,76.508,323.88Z" transform="translate(-27.82 -250.379)"/><path class="d" d="M85.6,31.835l-7.49-9.363-7.49,9.363V0H85.6Z" transform="translate(-55.64 0)"/><path class="e" d="M229.512,5.618V73.5a5.959,5.959,0,0,1,5.805-6.086h35.392V3.745A3.756,3.756,0,0,0,266.964,0H235.13a5.611,5.611,0,0,0-5.618,5.618Z" transform="translate(-180.824 0)"/><path class="b" d="M229.512,323.88v1.4h41.2v-7.49H235.317A5.959,5.959,0,0,0,229.512,323.88Z" transform="translate(-180.824 -250.379)"/><path class="f" d="M344.009,203.035H332.773a14.977,14.977,0,0,0-14.981,14.981V253.6a14.977,14.977,0,0,0,14.981,14.981h11.236A14.977,14.977,0,0,0,358.99,253.6v-35.58a14.977,14.977,0,0,0-14.981-14.981Z" transform="translate(-250.378 -159.965)"/><path class="g" d="M435.5,218.016v13.108H414.9V203.035h5.618A14.977,14.977,0,0,1,435.5,218.016Z" transform="translate(-326.884 -159.965)"/><path class="h" d="M358.99,335.448v22.471A14.977,14.977,0,0,1,344.009,372.9H332.773a14.977,14.977,0,0,1-14.981-14.981V335.448Z" transform="translate(-250.378 -264.288)"/></g></svg>