<svg width="23" height="24" viewBox="0 0 23 24" fill="none" xmlns="http://www.w3.org/2000/svg">
<path d="M2.04094 22.196L17.9643 21.2773L22.7107 10.9424L16.8926 2.36829L7.55289 2.67451L1.81128 8.26301L2.04094 22.196Z" fill="url(#paint0_linear)"/>
<path d="M6.59772 19.9566L6.93953 20.1593C8.37502 21.0123 10.0208 21.4633 11.6993 21.4642H11.7029C16.8574 21.4642 21.0524 17.2656 21.0545 12.105C21.0554 9.60424 20.0836 7.25263 18.3179 5.48371C16.5522 3.71478 14.2045 2.74013 11.7065 2.73908C6.54799 2.73908 2.35297 6.93724 2.35108 12.0974C2.35024 13.8657 2.84461 15.588 3.78067 17.0782L4.00321 17.4322L3.05829 20.8857L6.59772 19.9566ZM0.356934 23.5609L1.95322 17.7261C0.968684 16.0186 0.450709 14.0813 0.451341 12.0968C0.453871 5.88812 5.50087 0.837036 11.7029 0.837036C14.7125 0.838506 17.5374 2.01105 19.662 4.13945C21.7859 6.26786 22.9555 9.09687 22.9544 12.1058C22.9517 18.3141 17.9038 23.366 11.7029 23.366C11.7024 23.366 11.7033 23.366 11.7029 23.366H11.698C9.81516 23.3652 7.96494 22.8924 6.32146 21.9951L0.356934 23.5609Z" fill="#F2F2F2"/>
<path fill-rule="evenodd" clip-rule="evenodd" d="M8.88829 7.3893C8.67756 6.92075 8.45587 6.91126 8.25567 6.90303C8.09172 6.89607 7.90417 6.89649 7.71684 6.89649C7.52928 6.89649 7.22478 6.96695 6.96727 7.24859C6.70954 7.53022 5.98315 8.211 5.98315 9.59576C5.98315 10.9805 6.99066 12.3184 7.131 12.5064C7.27156 12.6942 9.07584 15.6266 11.9336 16.7546C14.3083 17.6921 14.7915 17.5056 15.3071 17.4588C15.8226 17.4119 16.9704 16.778 17.2046 16.1208C17.4389 15.4637 17.4389 14.9006 17.3687 14.7829C17.2983 14.6654 17.111 14.5952 16.8297 14.4544C16.5486 14.3137 15.1664 13.6327 14.9087 13.5389C14.6509 13.445 14.4636 13.3982 14.276 13.6798C14.0887 13.9614 13.5503 14.5952 13.3861 14.7829C13.2222 14.9709 13.0582 14.9943 12.7769 14.8536C12.4958 14.7125 11.5903 14.4156 10.5162 13.4568C9.68042 12.7108 9.1163 11.7896 8.95214 11.5079C8.78819 11.2263 8.93465 11.074 9.07563 10.9337C9.20185 10.8075 9.35674 10.605 9.49751 10.4407C9.63765 10.2763 9.68464 10.159 9.7782 9.97148C9.87198 9.78352 9.8252 9.61918 9.75481 9.47846C9.68464 9.33775 9.13821 7.94582 8.88829 7.3893Z" fill="white"/>
<defs>
<linearGradient id="paint0_linear" x1="11.6555" y1="23.1679" x2="11.6555" y2="1.23077" gradientUnits="userSpaceOnUse">
<stop stop-color="#20B038"/>
<stop offset="0.0078125" stop-color="#20B038"/>
<stop offset="0.015625" stop-color="#21B039"/>
<stop offset="0.0234375" stop-color="#21B139"/>
<stop offset="0.03125" stop-color="#22B139"/>
<stop offset="0.0390625" stop-color="#22B13A"/>
<stop offset="0.046875" stop-color="#23B23A"/>
<stop offset="0.0546875" stop-color="#23B23B"/>
<stop offset="0.0625" stop-color="#24B23B"/>
<stop offset="0.0703125" stop-color="#24B33B"/>
<stop offset="0.078125" stop-color="#25B33C"/>
<stop offset="0.0859375" stop-color="#25B33C"/>
<stop offset="0.09375" stop-color="#26B33C"/>
<stop offset="0.101562" stop-color="#26B43D"/>
<stop offset="0.109375" stop-color="#27B43D"/>
<stop offset="0.117188" stop-color="#27B43E"/>
<stop offset="0.125" stop-color="#28B53E"/>
<stop offset="0.132813" stop-color="#28B53E"/>
<stop offset="0.140625" stop-color="#29B53F"/>
<stop offset="0.148438" stop-color="#29B53F"/>
<stop offset="0.15625" stop-color="#2AB640"/>
<stop offset="0.164063" stop-color="#2AB640"/>
<stop offset="0.171875" stop-color="#2BB640"/>
<stop offset="0.179688" stop-color="#2BB741"/>
<stop offset="0.1875" stop-color="#2CB741"/>
<stop offset="0.195313" stop-color="#2CB742"/>
<stop offset="0.203125" stop-color="#2DB842"/>
<stop offset="0.210937" stop-color="#2DB842"/>
<stop offset="0.21875" stop-color="#2EB843"/>
<stop offset="0.226563" stop-color="#2EB843"/>
<stop offset="0.234375" stop-color="#2FB944"/>
<stop offset="0.242188" stop-color="#2FB944"/>
<stop offset="0.25" stop-color="#30B944"/>
<stop offset="0.257813" stop-color="#30BA45"/>
<stop offset="0.265625" stop-color="#31BA45"/>
<stop offset="0.273438" stop-color="#31BA45"/>
<stop offset="0.28125" stop-color="#32BB46"/>
<stop offset="0.289063" stop-color="#32BB46"/>
<stop offset="0.296875" stop-color="#33BB47"/>
<stop offset="0.304688" stop-color="#33BB47"/>
<stop offset="0.3125" stop-color="#34BC47"/>
<stop offset="0.320313" stop-color="#34BC48"/>
<stop offset="0.328125" stop-color="#35BC48"/>
<stop offset="0.335938" stop-color="#35BD49"/>
<stop offset="0.34375" stop-color="#36BD49"/>
<stop offset="0.351563" stop-color="#36BD49"/>
<stop offset="0.359375" stop-color="#37BE4A"/>
<stop offset="0.367188" stop-color="#37BE4A"/>
<stop offset="0.375" stop-color="#38BE4B"/>
<stop offset="0.382813" stop-color="#38BE4B"/>
<stop offset="0.390625" stop-color="#39BF4B"/>
<stop offset="0.398438" stop-color="#39BF4C"/>
<stop offset="0.40625" stop-color="#3ABF4C"/>
<stop offset="0.414063" stop-color="#3AC04D"/>
<stop offset="0.421875" stop-color="#3BC04D"/>
<stop offset="0.429687" stop-color="#3BC04D"/>
<stop offset="0.4375" stop-color="#3CC04E"/>
<stop offset="0.445313" stop-color="#3CC14E"/>
<stop offset="0.453125" stop-color="#3DC14E"/>
<stop offset="0.460937" stop-color="#3DC14F"/>
<stop offset="0.46875" stop-color="#3EC24F"/>
<stop offset="0.476563" stop-color="#3EC250"/>
<stop offset="0.484375" stop-color="#3FC250"/>
<stop offset="0.492187" stop-color="#3FC350"/>
<stop offset="0.5" stop-color="#40C351"/>
<stop offset="0.507813" stop-color="#40C351"/>
<stop offset="0.515625" stop-color="#41C352"/>
<stop offset="0.523438" stop-color="#41C452"/>
<stop offset="0.53125" stop-color="#42C452"/>
<stop offset="0.539062" stop-color="#42C453"/>
<stop offset="0.546875" stop-color="#43C553"/>
<stop offset="0.554688" stop-color="#43C554"/>
<stop offset="0.5625" stop-color="#44C554"/>
<stop offset="0.570313" stop-color="#44C654"/>
<stop offset="0.578125" stop-color="#45C655"/>
<stop offset="0.585938" stop-color="#45C655"/>
<stop offset="0.59375" stop-color="#46C655"/>
<stop offset="0.601563" stop-color="#46C756"/>
<stop offset="0.609375" stop-color="#47C756"/>
<stop offset="0.617188" stop-color="#47C757"/>
<stop offset="0.625" stop-color="#48C857"/>
<stop offset="0.632813" stop-color="#48C857"/>
<stop offset="0.640625" stop-color="#49C858"/>
<stop offset="0.648438" stop-color="#49C858"/>
<stop offset="0.65625" stop-color="#4AC959"/>
<stop offset="0.664063" stop-color="#4AC959"/>
<stop offset="0.671875" stop-color="#4BC959"/>
<stop offset="0.679688" stop-color="#4BCA5A"/>
<stop offset="0.6875" stop-color="#4CCA5A"/>
<stop offset="0.695313" stop-color="#4CCA5B"/>
<stop offset="0.703125" stop-color="#4DCB5B"/>
<stop offset="0.710938" stop-color="#4DCB5B"/>
<stop offset="0.71875" stop-color="#4ECB5C"/>
<stop offset="0.726563" stop-color="#4ECB5C"/>
<stop offset="0.734375" stop-color="#4FCC5D"/>
<stop offset="0.742188" stop-color="#4FCC5D"/>
<stop offset="0.75" stop-color="#50CC5D"/>
<stop offset="0.757812" stop-color="#50CD5E"/>
<stop offset="0.765625" stop-color="#51CD5E"/>
<stop offset="0.773438" stop-color="#51CD5E"/>
<stop offset="0.78125" stop-color="#52CE5F"/>
<stop offset="0.789063" stop-color="#52CE5F"/>
<stop offset="0.796875" stop-color="#53CE60"/>
<stop offset="0.804687" stop-color="#53CE60"/>
<stop offset="0.8125" stop-color="#54CF60"/>
<stop offset="0.820313" stop-color="#54CF61"/>
<stop offset="0.828125" stop-color="#55CF61"/>
<stop offset="0.835938" stop-color="#55D062"/>
<stop offset="0.84375" stop-color="#56D062"/>
<stop offset="0.851562" stop-color="#56D062"/>
<stop offset="0.859375" stop-color="#57D163"/>
<stop offset="0.867187" stop-color="#57D163"/>
<stop offset="0.875" stop-color="#58D164"/>
<stop offset="0.882813" stop-color="#58D164"/>
<stop offset="0.890625" stop-color="#59D264"/>
<stop offset="0.898438" stop-color="#59D265"/>
<stop offset="0.90625" stop-color="#5AD265"/>
<stop offset="0.914062" stop-color="#5AD366"/>
<stop offset="0.921875" stop-color="#5BD366"/>
<stop offset="0.929687" stop-color="#5BD366"/>
<stop offset="0.9375" stop-color="#5CD367"/>
<stop offset="0.945313" stop-color="#5CD467"/>
<stop offset="0.953125" stop-color="#5DD467"/>
<stop offset="0.960938" stop-color="#5DD468"/>
<stop offset="0.96875" stop-color="#5ED568"/>
<stop offset="0.976562" stop-color="#5ED569"/>
<stop offset="0.984375" stop-color="#5FD569"/>
<stop offset="0.992188" stop-color="#5FD669"/>
<stop offset="1" stop-color="#60D66A"/>
</linearGradient>
</defs>
</svg>
